<svg id="visual" viewBox="0 0 1920 1080" width="1920" height="1080" xmlns="http://www.w3.org/2000/svg" xmlns:xlink="http://www.w3.org/1999/xlink" version="1.1"><rect x="0" y="0" width="1920" height="1080" fill="#002233"></rect><path d="M0 684L45.7 711C91.3 738 182.7 792 274.2 804.8C365.7 817.7 457.3 789.3 548.8 760.7C640.3 732 731.7 703 823 719.7C914.3 736.3 1005.7 798.7 1097 811.3C1188.3 824 1279.7 787 1371.2 772.2C1462.7 757.3 1554.3 764.7 1645.8 769C1737.3 773.3 1828.7 774.7 1874.3 775.3L1920 776L1920 1081L1874.3 1081C1828.7 1081 1737.3 1081 1645.8 1081C1554.3 1081 1462.7 1081 1371.2 1081C1279.7 1081 1188.3 1081 1097 1081C1005.7 1081 914.3 1081 823 1081C731.7 1081 640.3 1081 548.8 1081C457.3 1081 365.7 1081 274.2 1081C182.7 1081 91.3 1081 45.7 1081L0 1081Z" fill="#0066FF" stroke-linecap="round" stroke-linejoin="miter"></path></svg>